<svg xmlns="http://www.w3.org/2000/svg" width="1120" height="620" viewBox="0 0 1120 620" role="img" aria-label="ATS delay time series relaxed">
<style>
text{font-family:system-ui,-apple-system,Segoe UI,sans-serif}
.title{font-size:18px;font-weight:700;fill:#0b0b0b}
.subtitle{font-size:12px;fill:#52514e}
.axis{font-size:11px;fill:#898781}
.label{font-size:11px;fill:#0b0b0b}
.legend{font-size:12px;fill:#52514e}
.note{font-size:11px;fill:#898781}
</style>
<rect width="100%" height="100%" fill="#fcfcfb" rx="14"/>
<metadata>preliminary-ats-poc; profile=relaxed; seed=42; source_run_id=2673fe764579b28c</metadata>
<text class="title" x="40" y="38">Observed TT/ET delay over time — relaxed</text>
<text class="subtitle" x="40" y="60">Monitor d_obs = windowed P95 delay · single-hop Python PoC</text>
<rect x="40.0" y="83.0" width="12" height="12" rx="3" fill="#2a78d6"/>
<text class="legend" x="58.0" y="93.0">Static-Low</text>
<rect x="150.0" y="83.0" width="12" height="12" rx="3" fill="#1baf7a"/>
<text class="legend" x="168.0" y="93.0">Static-High</text>
<rect x="267.4" y="83.0" width="12" height="12" rx="3" fill="#eda100"/>
<text class="legend" x="285.4" y="93.0">Offline-Optimized</text>
<rect x="429.2" y="83.0" width="12" height="12" rx="3" fill="#008300"/>
<text class="legend" x="447.2" y="93.0">Rule-Based</text>
<line x1="74" y1="542.0" x2="1084" y2="542.0" stroke="#e1e0d9"/>
<text class="axis" x="64" y="546.0" text-anchor="end">0</text>
<line x1="74" y1="457.6" x2="1084" y2="457.6" stroke="#e1e0d9"/>
<text class="axis" x="64" y="461.6" text-anchor="end">57</text>
<line x1="74" y1="373.2" x2="1084" y2="373.2" stroke="#e1e0d9"/>
<text class="axis" x="64" y="377.2" text-anchor="end">113</text>
<line x1="74" y1="288.8" x2="1084" y2="288.8" stroke="#e1e0d9"/>
<text class="axis" x="64" y="292.8" text-anchor="end">170</text>
<line x1="74" y1="204.4" x2="1084" y2="204.4" stroke="#e1e0d9"/>
<text class="axis" x="64" y="208.4" text-anchor="end">226</text>
<line x1="74" y1="120.0" x2="1084" y2="120.0" stroke="#e1e0d9"/>
<text class="axis" x="64" y="124.0" text-anchor="end">283</text>
<text class="axis" x="74.0" y="578" text-anchor="middle">0.0s</text>
<text class="axis" x="326.5" y="578" text-anchor="middle">0.5s</text>
<text class="axis" x="579.0" y="578" text-anchor="middle">1.0s</text>
<text class="axis" x="831.5" y="578" text-anchor="middle">1.5s</text>
<text class="axis" x="1084.0" y="578" text-anchor="middle">2.0s</text>
<line x1="74" y1="542" x2="1084" y2="542" stroke="#c3c2b7"/>
<line x1="74" y1="120" x2="74" y2="542" stroke="#c3c2b7"/>
<text class="axis" x="26" y="104">ms</text>
<path d="M 76.5 541.0 L 79.1 538.1 L 81.6 535.3 L 84.1 532.5 L 86.6 529.6 L 89.2 526.7 L 91.7 524.0 L 94.2 521.1 L 96.7 518.3 L 99.3 515.8 L 101.8 512.4 L 104.3 509.5 L 106.8 506.6 L 109.4 503.6 L 111.9 500.7 L 114.4 497.8 L 116.9 494.8 L 119.5 491.9 L 122.0 489.0 L 124.5 486.0 L 127.0 483.1 L 129.6 480.2 L 132.1 477.3 L 134.6 474.4 L 137.1 471.5 L 139.7 468.6 L 142.2 465.7 L 144.7 462.8 L 147.2 459.9 L 149.8 457.0 L 152.3 454.1 L 154.8 451.1 L 157.3 448.2 L 159.9 445.3 L 162.4 442.2 L 164.9 439.3 L 167.4 436.4 L 170.0 433.4 L 172.5 430.5 L 175.0 427.6 L 177.5 424.3 L 180.1 421.4 L 182.6 418.5 L 185.1 415.6 L 187.6 412.6 L 190.2 409.7 L 192.7 406.7 L 195.2 403.8 L 197.7 400.9 L 200.3 397.8 L 202.8 394.9 L 205.3 392.0 L 207.8 389.1 L 210.4 386.2 L 212.9 383.3 L 215.4 380.4 L 217.9 377.5 L 220.5 374.6 L 223.0 371.6 L 225.5 368.7 L 228.0 365.8 L 230.6 362.9 L 233.1 360.0 L 235.6 357.1 L 238.1 354.2 L 240.7 351.2 L 243.2 348.3 L 245.7 345.2 L 248.2 342.3 L 250.8 339.4 L 253.3 336.4 L 255.8 333.5 L 258.3 330.6 L 260.9 327.4 L 263.4 324.4 L 265.9 321.5 L 268.4 318.5 L 271.0 315.6 L 273.5 312.7 L 276.0 309.7 L 278.5 306.8 L 281.1 303.9 L 283.6 300.9 L 286.1 298.0 L 288.6 295.1 L 291.2 292.2 L 293.7 289.2 L 296.2 286.3 L 298.7 283.4 L 301.3 280.5 L 303.8 277.6 L 306.3 274.7 L 308.8 271.8 L 311.4 268.9 L 313.9 266.0 L 316.4 263.1 L 318.9 260.2 L 321.5 257.2 L 324.0 254.3 L 326.5 251.3 L 329.0 248.3 L 331.6 245.4 L 334.1 242.5 L 336.6 239.5 L 339.1 236.6 L 341.7 233.7 L 344.2 230.4 L 346.7 227.5 L 349.2 224.6 L 351.8 221.6 L 354.3 218.7 L 356.8 215.8 L 359.3 212.8 L 361.9 209.9 L 364.4 207.0 L 366.9 203.9 L 369.4 201.0 L 372.0 198.1 L 374.5 195.2 L 377.0 192.4 L 379.5 190.7 L 382.1 189.8 L 384.6 189.0 L 387.1 188.3 L 389.6 187.3 L 392.2 186.0 L 394.7 184.5 L 397.2 182.9 L 399.7 182.3 L 402.3 181.6 L 404.8 180.7 L 407.3 179.9 L 409.8 179.0 L 412.4 177.5 L 414.9 176.1 L 417.4 174.7 L 419.9 173.9 L 422.5 173.4 L 425.0 172.5 L 427.5 171.7 L 430.0 170.2 L 432.6 169.0 L 435.1 167.5 L 437.6 166.4 L 440.1 165.6 L 442.7 164.9 L 445.2 164.0 L 447.7 163.1 L 450.2 161.8 L 452.8 160.3 L 455.3 158.7 L 457.8 158.4 L 460.3 158.4 L 462.9 158.4 L 465.4 158.4 L 467.9 158.5 L 470.4 158.5 L 473.0 158.5 L 475.5 158.5 L 478.0 158.6 L 480.5 159.1 L 483.1 162.0 L 485.6 163.9 L 488.1 165.5 L 490.6 169.0 L 493.2 170.2 L 495.7 173.4 L 498.2 175.5 L 500.7 177.0 L 503.3 180.4 L 505.8 181.9 L 508.3 185.1 L 510.8 187.0 L 513.4 188.6 L 515.9 192.0 L 518.4 193.6 L 520.9 196.5 L 523.5 199.7 L 526.0 203.5 L 528.5 208.3 L 531.0 213.8 L 533.6 217.4 L 536.1 221.1 L 538.6 224.1 L 541.1 228.9 L 543.7 231.7 L 546.2 235.8 L 548.7 238.5 L 551.2 240.8 L 553.8 245.0 L 556.3 248.9 L 558.8 252.5 L 561.3 254.9 L 563.9 258.4 L 566.4 262.5 L 568.9 267.8 L 571.4 269.6 L 574.0 269.6 L 576.5 269.6 L 579.0 269.3 L 581.5 269.2 L 584.1 269.3 L 586.6 269.3 L 589.1 269.3 L 591.6 269.3 L 594.2 269.3 L 596.7 269.3 L 599.2 269.3 L 601.7 269.3 L 604.3 269.9 L 606.8 269.9 L 609.3 269.9 L 611.8 269.9 L 614.4 269.9 L 616.9 269.9 L 619.4 269.9 L 621.9 270.0 L 624.5 270.0 L 627.0 270.1 L 629.5 270.2 L 632.0 271.0 L 634.6 271.9 L 637.1 271.9 L 639.6 272.5 L 642.1 272.5 L 644.7 272.7 L 647.2 272.5 L 649.7 272.5 L 652.2 272.6 L 654.8 272.2 L 657.3 271.9 L 659.8 271.4 L 662.3 271.1 L 664.9 271.0 L 667.4 270.9 L 669.9 270.9 L 672.4 270.9 L 675.0 270.5 L 677.5 270.3 L 680.0 270.3 L 682.5 270.3 L 685.1 270.3 L 687.6 270.4 L 690.1 270.4 L 692.6 270.4 L 695.2 270.4 L 697.7 270.4 L 700.2 271.0 L 702.7 272.2 L 705.3 273.1 L 707.8 274.8 L 710.3 276.6 L 712.8 278.1 L 715.4 279.1 L 717.9 280.7 L 720.4 281.7 L 722.9 282.9 L 725.5 284.5 L 728.0 285.7 L 730.5 287.5 L 733.0 289.4 L 735.6 291.3 L 738.1 292.7 L 740.6 294.2 L 743.1 295.7 L 745.7 297.7 L 748.2 299.6 L 750.7 301.5 L 753.2 303.3 L 755.8 305.1 L 758.3 306.8 L 760.8 308.5 L 763.3 310.3 L 765.9 312.1 L 768.4 314.0 L 770.9 315.9 L 773.4 317.6 L 776.0 318.3 L 778.5 318.3 L 781.0 318.3 L 783.5 318.3 L 786.1 318.3 L 788.6 318.3 L 791.1 318.3 L 793.6 318.3 L 796.2 318.3 L 798.7 318.3 L 801.2 318.3 L 803.7 318.3 L 806.3 318.3 L 808.8 318.3 L 811.3 318.3 L 813.8 318.3 L 816.4 318.3 L 818.9 318.3 L 821.4 318.3 L 823.9 318.3 L 826.5 318.3 L 829.0 318.3 L 831.5 318.3 L 834.0 318.3 L 836.6 318.3 L 839.1 318.3 L 841.6 318.3 L 844.1 318.3 L 846.7 318.3 L 849.2 318.3 L 851.7 318.3 L 854.2 318.3 L 856.8 318.3 L 859.3 318.3 L 861.8 318.3 L 864.3 318.3 L 866.9 318.3 L 869.4 318.3 L 871.9 318.3 L 874.4 318.3 L 877.0 318.3 L 879.5 318.3 L 882.0 318.3 L 884.5 318.3 L 887.1 318.3 L 889.6 318.3 L 892.1 318.3 L 894.6 318.3 L 897.2 318.3 L 899.7 318.3 L 902.2 318.3 L 904.7 318.3 L 907.3 318.3 L 909.8 318.0 L 912.3 316.2 L 914.8 314.0 L 917.4 311.5 L 919.9 309.5 L 922.4 307.2 L 924.9 305.3 L 927.5 303.0 L 930.0 300.6 L 932.5 298.4 L 935.0 296.4 L 937.6 294.4 L 940.1 292.4 L 942.6 289.9 L 945.1 287.6 L 947.7 285.7 L 950.2 283.7 L 952.7 281.8 L 955.2 279.4 L 957.8 276.9 L 960.3 275.1 L 962.8 273.0 L 965.3 271.2 L 967.9 268.8 L 970.4 266.4 L 972.9 264.4 L 975.4 262.3 L 978.0 260.5 L 980.5 258.1 L 983.0 255.8 L 985.5 253.7 L 988.1 251.7 L 990.6 249.7 L 993.1 247.7 L 995.6 245.2 L 998.2 242.9 L 1000.7 241.0 L 1003.2 239.0 L 1005.7 237.0 L 1008.3 234.7 L 1010.8 232.2 L 1013.3 230.3 L 1015.8 229.8 L 1018.4 229.7 L 1020.9 229.7 L 1023.4 229.7 L 1025.9 229.7 L 1028.5 229.8 L 1031.0 229.8 L 1033.5 229.8 L 1036.0 229.8 L 1038.6 229.9 L 1041.1 231.0 L 1043.6 232.6 L 1046.1 233.5 L 1048.7 234.7 L 1051.2 236.2 L 1053.7 237.3 L 1056.2 238.4 L 1058.8 239.8 L 1061.3 241.4 L 1063.8 242.0 L 1066.3 243.5 L 1068.9 244.9 L 1071.4 246.1 L 1073.9 247.0 L 1076.4 248.2 L 1079.0 249.9 L 1081.5 250.8 L 1084.0 252.3" fill="none" stroke="#2a78d6" stroke-width="2" stroke-linejoin="round" stroke-linecap="round"><title>Static-Low observed delay</title></path>
<circle cx="1084.0" cy="252.3" r="4" fill="#2a78d6" stroke="#fcfcfb" stroke-width="2"/>
<text class="label" x="1092.0" y="256.3">Static-Low</text>
<path d="M 76.5 541.8 L 79.1 541.8 L 81.6 541.8 L 84.1 541.8 L 86.6 541.8 L 89.2 541.8 L 91.7 541.8 L 94.2 541.8 L 96.7 541.8 L 99.3 541.8 L 101.8 541.8 L 104.3 541.8 L 106.8 541.8 L 109.4 541.8 L 111.9 541.8 L 114.4 541.8 L 116.9 541.8 L 119.5 541.8 L 122.0 541.8 L 124.5 541.8 L 127.0 541.8 L 129.6 541.8 L 132.1 541.8 L 134.6 541.8 L 137.1 541.8 L 139.7 541.8 L 142.2 541.8 L 144.7 541.8 L 147.2 541.8 L 149.8 541.8 L 152.3 541.8 L 154.8 541.8 L 157.3 541.8 L 159.9 541.8 L 162.4 541.8 L 164.9 541.8 L 167.4 541.8 L 170.0 541.8 L 172.5 541.8 L 175.0 541.8 L 177.5 541.8 L 180.1 541.8 L 182.6 541.8 L 185.1 541.8 L 187.6 541.8 L 190.2 541.8 L 192.7 541.8 L 195.2 541.8 L 197.7 541.8 L 200.3 541.8 L 202.8 541.8 L 205.3 541.8 L 207.8 541.8 L 210.4 541.8 L 212.9 541.8 L 215.4 541.8 L 217.9 541.8 L 220.5 541.8 L 223.0 541.8 L 225.5 541.8 L 228.0 541.8 L 230.6 541.8 L 233.1 541.8 L 235.6 541.8 L 238.1 541.8 L 240.7 541.8 L 243.2 541.8 L 245.7 541.8 L 248.2 541.8 L 250.8 541.8 L 253.3 541.8 L 255.8 541.8 L 258.3 541.8 L 260.9 541.8 L 263.4 541.8 L 265.9 541.8 L 268.4 541.8 L 271.0 541.8 L 273.5 541.8 L 276.0 541.8 L 278.5 541.8 L 281.1 541.8 L 283.6 541.8 L 286.1 541.8 L 288.6 541.8 L 291.2 541.8 L 293.7 541.8 L 296.2 541.8 L 298.7 541.8 L 301.3 541.8 L 303.8 541.8 L 306.3 541.8 L 308.8 541.8 L 311.4 541.8 L 313.9 541.8 L 316.4 541.8 L 318.9 541.8 L 321.5 541.8 L 324.0 541.8 L 326.5 541.8 L 329.0 541.7 L 331.6 541.7 L 334.1 541.7 L 336.6 541.6 L 339.1 541.6 L 341.7 541.6 L 344.2 541.6 L 346.7 541.6 L 349.2 541.4 L 351.8 540.8 L 354.3 540.2 L 356.8 539.7 L 359.3 539.1 L 361.9 538.6 L 364.4 538.0 L 366.9 537.5 L 369.4 536.9 L 372.0 536.4 L 374.5 535.8 L 377.0 535.3 L 379.5 534.7 L 382.1 534.1 L 384.6 533.6 L 387.1 533.0 L 389.6 532.5 L 392.2 531.9 L 394.7 531.4 L 397.2 530.8 L 399.7 530.3 L 402.3 529.7 L 404.8 529.2 L 407.3 528.6 L 409.8 528.1 L 412.4 527.5 L 414.9 526.9 L 417.4 526.4 L 419.9 525.9 L 422.5 525.3 L 425.0 524.8 L 427.5 524.2 L 430.0 523.7 L 432.6 523.1 L 435.1 522.5 L 437.6 522.0 L 440.1 521.4 L 442.7 520.9 L 445.2 520.3 L 447.7 519.8 L 450.2 519.2 L 452.8 518.7 L 455.3 518.1 L 457.8 517.6 L 460.3 517.0 L 462.9 516.4 L 465.4 515.9 L 467.9 515.4 L 470.4 514.8 L 473.0 514.3 L 475.5 513.7 L 478.0 513.2 L 480.5 512.6 L 483.1 512.0 L 485.6 511.5 L 488.1 510.9 L 490.6 510.4 L 493.2 509.9 L 495.7 509.3 L 498.2 508.8 L 500.7 508.2 L 503.3 507.6 L 505.8 507.1 L 508.3 506.5 L 510.8 505.9 L 513.4 505.4 L 515.9 504.9 L 518.4 504.3 L 520.9 503.8 L 523.5 503.2 L 526.0 502.7 L 528.5 502.1 L 531.0 501.5 L 533.6 501.0 L 536.1 500.4 L 538.6 499.9 L 541.1 499.3 L 543.7 498.8 L 546.2 498.3 L 548.7 497.7 L 551.2 497.1 L 553.8 496.6 L 556.3 496.0 L 558.8 495.5 L 561.3 495.0 L 563.9 494.4 L 566.4 493.8 L 568.9 493.3 L 571.4 492.7 L 574.0 492.2 L 576.5 491.6 L 579.0 491.0 L 581.5 490.5 L 584.1 489.9 L 586.6 489.4 L 589.1 488.8 L 591.6 488.3 L 594.2 487.8 L 596.7 487.2 L 599.2 485.3 L 601.7 484.5 L 604.3 483.9 L 606.8 483.3 L 609.3 482.8 L 611.8 482.2 L 614.4 481.7 L 616.9 481.1 L 619.4 480.6 L 621.9 480.0 L 624.5 479.4 L 627.0 478.9 L 629.5 478.3 L 632.0 477.8 L 634.6 477.3 L 637.1 476.7 L 639.6 476.1 L 642.1 475.6 L 644.7 475.0 L 647.2 474.5 L 649.7 474.0 L 652.2 473.4 L 654.8 472.8 L 657.3 472.3 L 659.8 471.7 L 662.3 471.2 L 664.9 470.6 L 667.4 470.1 L 669.9 469.5 L 672.4 469.0 L 675.0 468.4 L 677.5 467.9 L 680.0 467.3 L 682.5 466.8 L 685.1 466.2 L 687.6 465.6 L 690.1 465.1 L 692.6 464.5 L 695.2 464.0 L 697.7 463.4 L 700.2 462.9 L 702.7 462.3 L 705.3 461.8 L 707.8 461.2 L 710.3 460.7 L 712.8 460.1 L 715.4 459.6 L 717.9 459.0 L 720.4 458.4 L 722.9 457.9 L 725.5 457.4 L 728.0 456.8 L 730.5 456.3 L 733.0 455.7 L 735.6 455.2 L 738.1 454.6 L 740.6 454.0 L 743.1 453.5 L 745.7 453.0 L 748.2 452.4 L 750.7 451.8 L 753.2 451.3 L 755.8 450.7 L 758.3 450.2 L 760.8 449.6 L 763.3 449.1 L 765.9 448.5 L 768.4 448.0 L 770.9 447.4 L 773.4 446.9 L 776.0 446.3 L 778.5 445.8 L 781.0 445.2 L 783.5 444.7 L 786.1 444.1 L 788.6 443.5 L 791.1 443.0 L 793.6 442.5 L 796.2 441.9 L 798.7 441.3 L 801.2 440.8 L 803.7 440.2 L 806.3 439.7 L 808.8 439.1 L 811.3 438.6 L 813.8 438.0 L 816.4 437.5 L 818.9 436.9 L 821.4 436.4 L 823.9 435.8 L 826.5 435.3 L 829.0 435.2 L 831.5 435.2 L 834.0 435.2 L 836.6 435.2 L 839.1 435.2 L 841.6 435.2 L 844.1 435.2 L 846.7 435.2 L 849.2 435.2 L 851.7 435.7 L 854.2 436.1 L 856.8 436.4 L 859.3 437.5 L 861.8 437.6 L 864.3 438.6 L 866.9 438.9 L 869.4 439.3 L 871.9 440.3 L 874.4 440.4 L 877.0 441.4 L 879.5 441.8 L 882.0 442.0 L 884.5 442.5 L 887.1 442.5 L 889.6 443.0 L 892.1 451.5 L 894.6 461.2 L 897.2 470.4 L 899.7 479.5 L 902.2 488.9 L 904.7 498.0 L 907.3 507.3 L 909.8 516.5 L 912.3 525.5 L 914.8 534.9 L 917.4 541.8 L 919.9 541.8 L 922.4 541.8 L 924.9 541.8 L 927.5 541.8 L 930.0 541.8 L 932.5 541.8 L 935.0 541.8 L 937.6 541.8 L 940.1 541.8 L 942.6 541.8 L 945.1 541.8 L 947.7 541.8 L 950.2 541.8 L 952.7 541.8 L 955.2 541.8 L 957.8 541.8 L 960.3 541.8 L 962.8 541.8 L 965.3 541.8 L 967.9 541.8 L 970.4 541.8 L 972.9 541.8 L 975.4 541.8 L 978.0 541.8 L 980.5 541.8 L 983.0 541.8 L 985.5 541.8 L 988.1 541.8 L 990.6 541.8 L 993.1 541.8 L 995.6 541.8 L 998.2 541.8 L 1000.7 541.8 L 1003.2 541.8 L 1005.7 541.8 L 1008.3 541.8 L 1010.8 541.8 L 1013.3 541.8 L 1015.8 541.8 L 1018.4 541.8 L 1020.9 541.8 L 1023.4 541.8 L 1025.9 541.8 L 1028.5 541.8 L 1031.0 541.8 L 1033.5 541.8 L 1036.0 541.8 L 1038.6 541.8 L 1041.1 541.8 L 1043.6 541.8 L 1046.1 541.8 L 1048.7 541.8 L 1051.2 541.8 L 1053.7 541.8 L 1056.2 541.8 L 1058.8 541.8 L 1061.3 541.8 L 1063.8 541.8 L 1066.3 541.8 L 1068.9 541.8 L 1071.4 541.8 L 1073.9 541.8 L 1076.4 541.8 L 1079.0 541.8 L 1081.5 541.8 L 1084.0 541.8" fill="none" stroke="#1baf7a" stroke-width="2" stroke-linejoin="round" stroke-linecap="round"><title>Static-High observed delay</title></path>
<circle cx="1084.0" cy="541.8" r="4" fill="#1baf7a" stroke="#fcfcfb" stroke-width="2"/>
<text class="label" x="1092.0" y="545.8">Static-High</text>
<path d="M 76.5 541.8 L 79.1 541.8 L 81.6 541.8 L 84.1 541.8 L 86.6 541.8 L 89.2 541.8 L 91.7 541.8 L 94.2 541.8 L 96.7 541.8 L 99.3 541.8 L 101.8 541.8 L 104.3 541.8 L 106.8 541.8 L 109.4 541.8 L 111.9 541.8 L 114.4 541.8 L 116.9 541.8 L 119.5 541.8 L 122.0 541.8 L 124.5 541.8 L 127.0 541.8 L 129.6 541.8 L 132.1 541.8 L 134.6 541.8 L 137.1 541.8 L 139.7 541.8 L 142.2 541.8 L 144.7 541.8 L 147.2 541.8 L 149.8 541.8 L 152.3 541.8 L 154.8 541.8 L 157.3 541.8 L 159.9 541.8 L 162.4 541.8 L 164.9 541.8 L 167.4 541.8 L 170.0 541.8 L 172.5 541.8 L 175.0 541.8 L 177.5 541.8 L 180.1 541.8 L 182.6 541.8 L 185.1 541.8 L 187.6 541.8 L 190.2 541.8 L 192.7 541.8 L 195.2 541.8 L 197.7 541.8 L 200.3 541.8 L 202.8 541.8 L 205.3 541.8 L 207.8 541.8 L 210.4 541.8 L 212.9 541.8 L 215.4 541.8 L 217.9 541.8 L 220.5 541.8 L 223.0 541.8 L 225.5 541.8 L 228.0 541.8 L 230.6 541.8 L 233.1 541.8 L 235.6 541.8 L 238.1 541.8 L 240.7 541.8 L 243.2 541.8 L 245.7 541.8 L 248.2 541.8 L 250.8 541.8 L 253.3 541.8 L 255.8 541.8 L 258.3 541.8 L 260.9 541.8 L 263.4 541.8 L 265.9 541.8 L 268.4 541.8 L 271.0 541.8 L 273.5 541.8 L 276.0 541.8 L 278.5 541.8 L 281.1 541.8 L 283.6 541.8 L 286.1 541.8 L 288.6 541.8 L 291.2 541.8 L 293.7 541.8 L 296.2 541.8 L 298.7 541.8 L 301.3 541.8 L 303.8 541.8 L 306.3 541.8 L 308.8 541.8 L 311.4 541.8 L 313.9 541.8 L 316.4 541.8 L 318.9 541.8 L 321.5 541.8 L 324.0 541.8 L 326.5 541.8 L 329.0 541.7 L 331.6 541.7 L 334.1 541.6 L 336.6 541.6 L 339.1 541.6 L 341.7 541.5 L 344.2 541.4 L 346.7 541.4 L 349.2 541.4 L 351.8 541.4 L 354.3 541.4 L 356.8 541.4 L 359.3 541.4 L 361.9 541.4 L 364.4 541.4 L 366.9 541.4 L 369.4 541.4 L 372.0 541.4 L 374.5 541.4 L 377.0 541.4 L 379.5 541.4 L 382.1 541.4 L 384.6 541.4 L 387.1 541.4 L 389.6 541.4 L 392.2 541.4 L 394.7 541.4 L 397.2 541.4 L 399.7 541.4 L 402.3 541.4 L 404.8 541.4 L 407.3 541.4 L 409.8 541.4 L 412.4 541.4 L 414.9 541.4 L 417.4 541.4 L 419.9 541.4 L 422.5 541.4 L 425.0 541.4 L 427.5 541.4 L 430.0 541.4 L 432.6 541.4 L 435.1 541.4 L 437.6 541.4 L 440.1 541.4 L 442.7 541.4 L 445.2 541.4 L 447.7 541.4 L 450.2 541.4 L 452.8 541.4 L 455.3 541.4 L 457.8 541.4 L 460.3 541.4 L 462.9 541.4 L 465.4 541.4 L 467.9 541.4 L 470.4 541.4 L 473.0 541.4 L 475.5 541.4 L 478.0 541.4 L 480.5 541.4 L 483.1 541.4 L 485.6 541.4 L 488.1 541.4 L 490.6 541.4 L 493.2 541.4 L 495.7 541.4 L 498.2 541.4 L 500.7 541.4 L 503.3 541.4 L 505.8 541.4 L 508.3 541.4 L 510.8 541.4 L 513.4 541.4 L 515.9 541.4 L 518.4 541.4 L 520.9 541.4 L 523.5 541.4 L 526.0 541.4 L 528.5 541.4 L 531.0 541.4 L 533.6 541.4 L 536.1 541.4 L 538.6 541.4 L 541.1 541.4 L 543.7 541.4 L 546.2 541.4 L 548.7 541.4 L 551.2 541.4 L 553.8 541.4 L 556.3 541.4 L 558.8 541.4 L 561.3 541.4 L 563.9 541.4 L 566.4 541.4 L 568.9 541.4 L 571.4 541.4 L 574.0 541.4 L 576.5 541.4 L 579.0 541.4 L 581.5 541.4 L 584.1 541.4 L 586.6 541.4 L 589.1 541.4 L 591.6 541.4 L 594.2 541.4 L 596.7 541.4 L 599.2 541.4 L 601.7 541.4 L 604.3 541.4 L 606.8 541.4 L 609.3 541.4 L 611.8 541.4 L 614.4 541.4 L 616.9 541.4 L 619.4 541.4 L 621.9 541.4 L 624.5 541.4 L 627.0 541.4 L 629.5 541.4 L 632.0 541.4 L 634.6 541.4 L 637.1 541.4 L 639.6 541.4 L 642.1 541.4 L 644.7 541.4 L 647.2 541.4 L 649.7 541.4 L 652.2 541.4 L 654.8 541.4 L 657.3 541.4 L 659.8 541.4 L 662.3 541.4 L 664.9 541.4 L 667.4 541.4 L 669.9 541.4 L 672.4 541.4 L 675.0 541.4 L 677.5 541.4 L 680.0 541.4 L 682.5 541.4 L 685.1 541.4 L 687.6 541.4 L 690.1 541.4 L 692.6 541.4 L 695.2 541.4 L 697.7 541.4 L 700.2 541.4 L 702.7 541.4 L 705.3 541.4 L 707.8 541.4 L 710.3 541.4 L 712.8 541.4 L 715.4 541.4 L 717.9 541.4 L 720.4 541.4 L 722.9 541.4 L 725.5 541.4 L 728.0 541.4 L 730.5 541.4 L 733.0 541.4 L 735.6 541.4 L 738.1 541.4 L 740.6 541.4 L 743.1 541.4 L 745.7 541.4 L 748.2 541.4 L 750.7 541.4 L 753.2 541.4 L 755.8 541.4 L 758.3 541.4 L 760.8 541.4 L 763.3 541.4 L 765.9 541.4 L 768.4 541.4 L 770.9 541.4 L 773.4 541.4 L 776.0 541.4 L 778.5 541.4 L 781.0 541.4 L 783.5 541.4 L 786.1 541.4 L 788.6 541.4 L 791.1 541.4 L 793.6 541.4 L 796.2 541.4 L 798.7 541.4 L 801.2 541.4 L 803.7 541.4 L 806.3 541.4 L 808.8 541.4 L 811.3 541.4 L 813.8 541.4 L 816.4 541.4 L 818.9 541.4 L 821.4 541.4 L 823.9 541.4 L 826.5 541.4 L 829.0 541.4 L 831.5 541.4 L 834.0 541.4 L 836.6 541.4 L 839.1 541.4 L 841.6 541.4 L 844.1 541.6 L 846.7 541.6 L 849.2 541.6 L 851.7 541.6 L 854.2 541.8 L 856.8 541.8 L 859.3 541.8 L 861.8 541.8 L 864.3 541.8 L 866.9 541.8 L 869.4 541.8 L 871.9 541.8 L 874.4 541.8 L 877.0 541.8 L 879.5 541.8 L 882.0 541.8 L 884.5 541.8 L 887.1 541.8 L 889.6 541.8 L 892.1 541.8 L 894.6 541.8 L 897.2 541.8 L 899.7 541.8 L 902.2 541.8 L 904.7 541.8 L 907.3 541.8 L 909.8 541.8 L 912.3 541.8 L 914.8 541.8 L 917.4 541.8 L 919.9 541.8 L 922.4 541.8 L 924.9 541.8 L 927.5 541.8 L 930.0 541.8 L 932.5 541.8 L 935.0 541.8 L 937.6 541.8 L 940.1 541.8 L 942.6 541.8 L 945.1 541.8 L 947.7 541.8 L 950.2 541.8 L 952.7 541.8 L 955.2 541.8 L 957.8 541.8 L 960.3 541.8 L 962.8 541.8 L 965.3 541.8 L 967.9 541.8 L 970.4 541.8 L 972.9 541.8 L 975.4 541.8 L 978.0 541.8 L 980.5 541.8 L 983.0 541.8 L 985.5 541.8 L 988.1 541.8 L 990.6 541.8 L 993.1 541.8 L 995.6 541.8 L 998.2 541.8 L 1000.7 541.8 L 1003.2 541.8 L 1005.7 541.8 L 1008.3 541.8 L 1010.8 541.8 L 1013.3 541.8 L 1015.8 541.8 L 1018.4 541.8 L 1020.9 541.8 L 1023.4 541.8 L 1025.9 541.8 L 1028.5 541.8 L 1031.0 541.8 L 1033.5 541.8 L 1036.0 541.8 L 1038.6 541.8 L 1041.1 541.8 L 1043.6 541.8 L 1046.1 541.8 L 1048.7 541.8 L 1051.2 541.8 L 1053.7 541.8 L 1056.2 541.8 L 1058.8 541.8 L 1061.3 541.8 L 1063.8 541.8 L 1066.3 541.8 L 1068.9 541.8 L 1071.4 541.8 L 1073.9 541.8 L 1076.4 541.8 L 1079.0 541.8 L 1081.5 541.8 L 1084.0 541.8" fill="none" stroke="#eda100" stroke-width="2" stroke-linejoin="round" stroke-linecap="round"><title>Offline-Optimized observed delay</title></path>
<circle cx="1084.0" cy="541.8" r="4" fill="#eda100" stroke="#fcfcfb" stroke-width="2"/>
<text class="label" x="1092.0" y="545.8">Offline-Optimized</text>
<path d="M 76.5 541.0 L 79.1 538.1 L 81.6 535.2 L 84.1 532.4 L 86.6 529.6 L 89.2 526.7 L 91.7 523.9 L 94.2 521.1 L 96.7 518.2 L 99.3 515.7 L 101.8 512.4 L 104.3 509.5 L 106.8 506.6 L 109.4 504.7 L 111.9 504.0 L 114.4 503.3 L 116.9 502.6 L 119.5 502.0 L 122.0 501.3 L 124.5 500.7 L 127.0 500.1 L 129.6 499.3 L 132.1 498.7 L 134.6 498.4 L 137.1 498.4 L 139.7 498.4 L 142.2 498.4 L 144.7 498.4 L 147.2 498.4 L 149.8 498.5 L 152.3 498.5 L 154.8 498.5 L 157.3 498.8 L 159.9 500.4 L 162.4 502.0 L 164.9 503.6 L 167.4 505.1 L 170.0 506.7 L 172.5 508.3 L 175.0 509.8 L 177.5 511.4 L 180.1 513.0 L 182.6 515.5 L 185.1 519.2 L 187.6 522.8 L 190.2 526.7 L 192.7 530.7 L 195.2 534.2 L 197.7 538.0 L 200.3 541.8 L 202.8 541.8 L 205.3 541.8 L 207.8 541.8 L 210.4 541.8 L 212.9 541.8 L 215.4 541.8 L 217.9 541.8 L 220.5 541.8 L 223.0 541.8 L 225.5 541.8 L 228.0 541.8 L 230.6 541.8 L 233.1 541.8 L 235.6 541.8 L 238.1 541.8 L 240.7 541.8 L 243.2 541.8 L 245.7 541.8 L 248.2 541.8 L 250.8 541.8 L 253.3 541.8 L 255.8 541.8 L 258.3 541.8 L 260.9 541.8 L 263.4 541.8 L 265.9 541.8 L 268.4 541.8 L 271.0 541.8 L 273.5 541.8 L 276.0 541.8 L 278.5 541.8 L 281.1 541.8 L 283.6 541.8 L 286.1 541.8 L 288.6 541.8 L 291.2 541.8 L 293.7 541.8 L 296.2 541.8 L 298.7 541.8 L 301.3 541.8 L 303.8 541.8 L 306.3 541.8 L 308.8 541.8 L 311.4 541.8 L 313.9 541.8 L 316.4 541.8 L 318.9 541.8 L 321.5 541.8 L 324.0 541.8 L 326.5 541.8 L 329.0 541.7 L 331.6 539.6 L 334.1 535.9 L 336.6 532.9 L 339.1 529.2 L 341.7 525.4 L 344.2 522.6 L 346.7 518.7 L 349.2 515.0 L 351.8 512.2 L 354.3 508.2 L 356.8 504.9 L 359.3 502.2 L 361.9 499.6 L 364.4 497.2 L 366.9 494.8 L 369.4 492.0 L 372.0 489.5 L 374.5 487.1 L 377.0 484.5 L 379.5 481.7 L 382.1 479.6 L 384.6 478.0 L 387.1 476.4 L 389.6 474.8 L 392.2 473.1 L 394.7 471.5 L 397.2 469.8 L 399.7 468.1 L 402.3 466.5 L 404.8 464.9 L 407.3 463.7 L 409.8 462.9 L 412.4 462.2 L 414.9 461.5 L 417.4 460.8 L 419.9 460.0 L 422.5 459.3 L 425.0 458.6 L 427.5 457.9 L 430.0 457.1 L 432.6 456.7 L 435.1 456.7 L 437.6 456.7 L 440.1 456.7 L 442.7 456.7 L 445.2 456.7 L 447.7 456.7 L 450.2 456.7 L 452.8 456.7 L 455.3 456.7 L 457.8 456.9 L 460.3 457.1 L 462.9 457.3 L 465.4 457.5 L 467.9 457.7 L 470.4 457.9 L 473.0 458.1 L 475.5 458.3 L 478.0 458.5 L 480.5 459.1 L 483.1 460.2 L 485.6 461.3 L 488.1 462.4 L 490.6 463.6 L 493.2 464.7 L 495.7 465.8 L 498.2 466.9 L 500.7 468.1 L 503.3 469.2 L 505.8 470.6 L 508.3 472.7 L 510.8 474.7 L 513.4 476.7 L 515.9 478.9 L 518.4 480.8 L 520.9 482.9 L 523.5 485.0 L 526.0 486.9 L 528.5 489.0 L 531.0 491.3 L 533.6 494.3 L 536.1 497.3 L 538.6 500.2 L 541.1 503.2 L 543.7 506.2 L 546.2 509.2 L 548.7 512.0 L 551.2 515.0 L 553.8 517.9 L 556.3 521.1 L 558.8 524.7 L 561.3 528.7 L 563.9 532.4 L 566.4 536.2 L 568.9 540.1 L 571.4 541.6 L 574.0 541.6 L 576.5 541.6 L 579.0 541.6 L 581.5 541.5 L 584.1 541.5 L 586.6 541.5 L 589.1 541.5 L 591.6 541.5 L 594.2 541.5 L 596.7 541.5 L 599.2 541.5 L 601.7 541.5 L 604.3 541.5 L 606.8 541.6 L 609.3 541.6 L 611.8 541.6 L 614.4 541.6 L 616.9 541.6 L 619.4 541.6 L 621.9 541.6 L 624.5 541.6 L 627.0 541.6 L 629.5 541.6 L 632.0 541.6 L 634.6 541.6 L 637.1 541.6 L 639.6 541.6 L 642.1 541.6 L 644.7 541.6 L 647.2 541.6 L 649.7 541.6 L 652.2 541.6 L 654.8 541.6 L 657.3 541.6 L 659.8 541.6 L 662.3 541.6 L 664.9 541.6 L 667.4 541.6 L 669.9 541.6 L 672.4 541.6 L 675.0 541.6 L 677.5 541.6 L 680.0 541.6 L 682.5 541.6 L 685.1 541.6 L 687.6 541.6 L 690.1 541.6 L 692.6 541.6 L 695.2 541.6 L 697.7 541.6 L 700.2 541.6 L 702.7 541.6 L 705.3 541.6 L 707.8 541.0 L 710.3 539.8 L 712.8 538.6 L 715.4 537.3 L 717.9 536.1 L 720.4 534.8 L 722.9 533.5 L 725.5 532.3 L 728.0 531.0 L 730.5 529.8 L 733.0 528.6 L 735.6 527.3 L 738.1 526.0 L 740.6 524.9 L 743.1 523.7 L 745.7 522.5 L 748.2 521.2 L 750.7 519.9 L 753.2 519.1 L 755.8 518.7 L 758.3 518.4 L 760.8 518.1 L 763.3 517.8 L 765.9 517.5 L 768.4 517.2 L 770.9 516.9 L 773.4 516.6 L 776.0 516.3 L 778.5 516.0 L 781.0 515.9 L 783.5 515.9 L 786.1 515.9 L 788.6 515.9 L 791.1 515.9 L 793.6 515.9 L 796.2 515.9 L 798.7 515.9 L 801.2 515.9 L 803.7 516.2 L 806.3 516.8 L 808.8 517.4 L 811.3 518.0 L 813.8 518.6 L 816.4 519.2 L 818.9 519.9 L 821.4 520.5 L 823.9 521.1 L 826.5 521.7 L 829.0 522.3 L 831.5 523.2 L 834.0 524.7 L 836.6 526.2 L 839.1 527.7 L 841.6 529.2 L 844.1 530.7 L 846.7 532.1 L 849.2 533.6 L 851.7 535.1 L 854.2 536.6 L 856.8 538.1 L 859.3 541.8 L 861.8 541.8 L 864.3 541.8 L 866.9 541.8 L 869.4 541.8 L 871.9 541.8 L 874.4 541.8 L 877.0 541.8 L 879.5 541.8 L 882.0 541.8 L 884.5 541.8 L 887.1 541.8 L 889.6 541.8 L 892.1 541.8 L 894.6 541.8 L 897.2 541.8 L 899.7 541.8 L 902.2 541.8 L 904.7 541.8 L 907.3 541.8 L 909.8 541.8 L 912.3 541.8 L 914.8 541.8 L 917.4 541.8 L 919.9 541.8 L 922.4 541.8 L 924.9 541.8 L 927.5 541.8 L 930.0 541.8 L 932.5 541.8 L 935.0 541.8 L 937.6 541.8 L 940.1 541.8 L 942.6 541.8 L 945.1 541.8 L 947.7 541.8 L 950.2 541.8 L 952.7 541.8 L 955.2 541.8 L 957.8 541.8 L 960.3 541.8 L 962.8 541.8 L 965.3 541.8 L 967.9 541.8 L 970.4 541.8 L 972.9 541.8 L 975.4 541.8 L 978.0 541.8 L 980.5 541.8 L 983.0 541.8 L 985.5 541.8 L 988.1 541.8 L 990.6 541.8 L 993.1 541.8 L 995.6 541.8 L 998.2 541.8 L 1000.7 541.8 L 1003.2 541.8 L 1005.7 541.8 L 1008.3 541.8 L 1010.8 541.8 L 1013.3 541.8 L 1015.8 541.8 L 1018.4 541.8 L 1020.9 541.8 L 1023.4 541.8 L 1025.9 541.8 L 1028.5 541.8 L 1031.0 541.8 L 1033.5 541.8 L 1036.0 541.8 L 1038.6 541.8 L 1041.1 541.8 L 1043.6 541.8 L 1046.1 541.8 L 1048.7 541.8 L 1051.2 541.8 L 1053.7 541.8 L 1056.2 541.8 L 1058.8 541.8 L 1061.3 541.8 L 1063.8 541.8 L 1066.3 541.8 L 1068.9 541.8 L 1071.4 541.8 L 1073.9 541.8 L 1076.4 541.8 L 1079.0 541.8 L 1081.5 541.8 L 1084.0 541.8" fill="none" stroke="#008300" stroke-width="2" stroke-linejoin="round" stroke-linecap="round"><title>Rule-Based observed delay</title></path>
<circle cx="1084.0" cy="541.8" r="4" fill="#008300" stroke="#fcfcfb" stroke-width="2"/>
<text class="label" x="1092.0" y="545.8">Rule-Based</text>
<text class="note" x="40" y="590">Note: d_obs is monitor-window P95 delay, not a final standards-compliant ATS measurement.</text>
</svg>
